<?xml version="1.0" encoding="UTF-8" standalone="no"?>
<svg
   xmlns:dc="http://purl.org/dc/elements/1.1/"
   xmlns:cc="http://creativecommons.org/ns#"
   xmlns:rdf="http://www.w3.org/1999/02/22-rdf-syntax-ns#"
   xmlns:svg="http://www.w3.org/2000/svg"
   xmlns="http://www.w3.org/2000/svg"
   id="svg1366"
   version="1.1"
   viewBox="0 0 110.51735 24.214662"
   height="91.519691"
   width="417.70078">
  <defs
     id="defs1360">
    <filter
       id="filter1340"
       style="color-interpolation-filters:sRGB">
      <feGaussianBlur
         id="feGaussianBlur1338"
         result="blur"
         stdDeviation="0.01 0.51" />
    </filter>
    <filter
       id="filter1139"
       style="color-interpolation-filters:sRGB">
      <feGaussianBlur
         id="feGaussianBlur1137"
         result="blur"
         stdDeviation="0.61 0.53" />
    </filter>
  </defs>
  <metadata
     id="metadata1363">
    <rdf:RDF>
      <cc:Work
         rdf:about="">
        <dc:format>image/svg+xml</dc:format>
        <dc:type
           rdf:resource="http://purl.org/dc/dcmitype/StillImage" />
        <dc:title></dc:title>
      </cc:Work>
    </rdf:RDF>
  </metadata>
  <g
     transform="translate(0,-272.78422)"
     id="layer1">
    <path
       id="path1063"
       d="m 79.971778,293.70838 -1.38906,-0.11427 7.9e-4,-4.28565 c 5.3e-4,-2.35711 0.0787,-6.16089 0.17372,-8.45284 l 0.17292,-4.16719 h 5.1032 c 4.91135,0 5.12913,0.0224 5.79326,0.59532 1.00297,0.86525 1.17817,2.07896 1.18521,8.21058 0.009,8.11014 -0.0341,8.17099 -5.8937,8.26685 -2.0665,0.0338 -4.38236,0.01 -5.14634,-0.0528 z m 7.79408,-3.79078 c 0.22998,-0.45537 0.33527,-2.08153 0.33796,-5.21942 0.005,-5.60558 0.13678,-5.42444 -3.86746,-5.30773 l -2.61093,0.0761 -0.0735,5.28021 c -0.0404,2.90412 -0.0128,5.43825 0.0613,5.6314 0.10298,0.26838 0.80478,0.33346 2.97665,0.27604 2.73172,-0.0722 2.85484,-0.10079 3.17595,-0.73661 z m -82.4088682,3.35353 c -1.47532,-0.81934 -1.52552,-1.09713 -1.44276,-7.98374 0.0458,-3.81478 0.19276,-6.64547 0.36799,-7.09008 0.51373,-1.30345 1.33398,-1.50888 6.0248502,-1.50888 h 4.24647 v 1.32292 1.32292 h -3.53086 c -3.0846302,0 -3.5862102,0.0611 -3.9687502,0.48385 -0.37224,0.41132 -0.43789,1.17596 -0.43789,5.1005 0,5.91161 -0.0651,5.79273 3.17111,5.79273 3.1384702,0 3.1788902,-0.0457 3.1788902,-3.59077 v -2.75923 h 1.45521 1.45521 v 3.31579 c 0,5.60122 -0.36028,5.94957 -6.1384202,5.93525 -2.52355,-0.006 -3.98246,-0.11989 -4.38105,-0.34126 z m 14.9944602,0.0115 c -0.79291,-0.60877 -1.03541,-1.48229 -1.03541,-3.72975 0,-1.9979 0.0719,-2.33524 0.63793,-2.99395 0.62713,-0.7298 0.69429,-0.74385 3.96875,-0.83009 l 3.330822,-0.0877 v -0.85155 c 0,-1.39028 -0.27755,-1.48654 -4.286252,-1.48654 h -3.65125 v -1.05834 -1.05833 h 4.38598 4.385982 l 0.7734,0.7734 0.7734,0.7734 v 4.63026 c 0,4.59532 -0.005,4.6364 -0.68498,5.44431 l -0.68498,0.81405 -3.746792,-0.008 c -2.52732,-0.006 -3.88343,-0.11332 -4.1666,-0.33073 z m 6.584592,-2.3596 c 0.45572,-0.45572 0.39179,-2.21625 -0.0983,-2.70631 -0.58692,-0.58692 -4.137782,-0.58692 -4.724702,0 -0.47444,0.47444 -0.54679,1.75545 -0.14188,2.51203 0.23687,0.4426 0.56945,0.51178 2.46062,0.51178 1.348022,0 2.308512,-0.12178 2.504232,-0.3175 z m 6.1547,-1.07157 c 0.0248,-5.70555 0.26276,-7.54614 1.05446,-8.15458 0.97333,-0.74803 5.18671,-0.73524 6.14513,0.0187 0.84225,0.66251 1.11737,0.66251 1.77988,0 0.4555,-0.4555 0.88195,-0.52917 3.06306,-0.52917 2.44785,0 2.56017,0.0263 3.3073,0.7734 l 0.7734,0.7734 v 5.44431 5.44431 h -1.19063 -1.19063 v -4.70959 c 0,-3.31023 -0.0943,-4.80392 -0.3175,-5.02708 -0.17462,-0.17462 -0.99956,-0.3175 -1.83318,-0.3175 -2.34126,0 -2.34723,0.0139 -2.34723,5.44286 v 4.61131 h -1.19063 -1.19062 v -4.70959 c 0,-3.31023 -0.0943,-4.80392 -0.3175,-5.02708 -0.47804,-0.47803 -3.24639,-0.40846 -3.66175,0.092 -0.25364,0.30562 -0.32444,1.58107 -0.27902,5.02709 l 0.0609,4.61756 h -1.34088 -1.34088 l 0.0164,-3.77032 z m 20.54487,3.1376 c -0.91453,-0.84756 -1.0688,-1.89635 -0.93113,-6.33041 0.16673,-5.36991 0.26886,-5.47229 5.4589,-5.47229 2.59465,0 3.50096,0.093 3.946016,0.40468 0.66497,0.46576 1.12388,1.88336 1.12601,3.47833 l 0.002,1.10488 -2.711976,1.03914 c -1.49159,0.57153 -3.27753,1.25137 -3.96875,1.51075 -1.06692,0.40033 -1.25689,0.57816 -1.25689,1.1765 0,1.22235 0.3644,1.33989 4.15396,1.33989 h 3.518956 v 1.19062 1.19063 h -4.326986 c -4.19632,0 -4.3476,-0.0191 -5.0097,-0.63272 z m 4.57419,-6.86248 c 1.75726,-0.66729 2.24896,-0.96636 2.24896,-1.36794 0,-0.70612 -1.06459,-1.18247 -2.65311,-1.18713 -1.92361,-0.006 -2.50627,0.48902 -2.50627,2.12777 0,0.87704 0.10896,1.30353 0.33073,1.29461 0.1819,-0.007 1.34276,-0.39761 2.57969,-0.86731 z m 11.050676,0.41759 -0.0705,-7.0776 -1.78594,-0.0782 -1.78594,-0.0782 v -1.31083 -1.31083 h 5.29167 5.29166 v 1.31133 1.31132 l -1.91822,0.0777 -1.91823,0.0777 -0.0705,7.0776 -0.0705,7.07761 h -1.44657 -1.44656 z m 25.197237,-1.38906 v -8.46667 h 5.17973 5.179725 l 0.73643,0.73644 c 1.3751,1.3751 1.32521,5.48356 -0.0837,6.89247 l -0.6664,0.6664 0.75229,0.85682 c 1.57587,1.79482 1.25798,6.56789 -0.50009,7.50878 -0.29807,0.15952 -2.59968,0.27243 -5.553515,0.27243 h -5.04447 z m 8.678325,5.23875 c 0.17463,-0.17462 0.3175,-0.94579 0.3175,-1.71369 0,-1.9526 -0.49767,-2.24871 -3.607965,-2.14674 l -2.34515,0.0769 -0.0773,2.05052 -0.0773,2.05052 h 2.736335 c 1.77548,0 2.84782,-0.11149 3.05383,-0.3175 z m 0,-7.14375 c 0.17463,-0.17462 0.3175,-1.00387 0.3175,-1.84277 0,-1.93807 -0.23147,-2.07306 -3.554475,-2.07306 h -2.53093 v 2.11666 2.11667 h 2.725195 c 1.76683,0 2.83687,-0.11166 3.04271,-0.3175 z"
       style="opacity:0.6;fill:#000000;stroke-width:0.26458335;filter:url(#filter1139)" />
    <path
       id="path1031"
       d="m 79.701508,293.1424 -1.43649,-0.26173 -0.21716,-5.50075 0.11838,-5.51842 1.22148,-0.31695 c 0.73692,-0.10135 1.39998,-0.12415 1.47346,-0.0507 0.0735,0.0735 0.15517,2.02047 0.1815,4.32664 l 0.0479,4.19303 h 2.9026 c 2.83048,0 2.91092,-0.0164 3.23725,-0.66146 0.22387,-0.44252 0.33593,-1.94511 0.33854,-4.53957 l 0.004,-3.87812 1.45557,-0.0906 1.45557,-0.0906 -2.6e-4,4.83715 c -5.3e-4,7.28981 -0.10368,7.36309 -5.57764,7.46482 -2.31888,0.0358 -4.29498,0.14853 -5.20449,0.0873 z M 4.8905698,292.68053 c -1.10534,-0.49437 -1.4657,-1.23424 -1.64545,-3.37826 -0.17912,-2.13658 -0.0435,-2.32105 1.71159,-2.32738 l 1.12448,-0.004 v 0.99946 c 0,0.54971 0.18535,1.26408 0.41188,1.5875 0.37299,0.53253 0.63348,0.58804 2.75922,0.58804 2.8792202,0 3.1789002,-0.21379 3.1789002,-2.26786 v -1.43631 l 0.8599,-0.004 c 0.47294,-0.002 1.12778,-0.0754 1.45521,-0.16315 0.5817,-0.15589 0.59531,-0.11027 0.59531,1.99649 0,2.55985 -0.43866,3.79389 -1.55352,4.37041 -1.05814,0.54719 -7.6960902,0.57607 -8.8975202,0.0387 z m 15.0452802,0.0663 c -0.31082,-0.1505 -0.69777,-0.56476 -0.85989,-0.92058 -0.40754,-0.89446 -0.38109,-4.90547 0.036,-5.4531 0.26576,-0.34897 1.27933,-0.50373 5.15937,-0.7878 l 4.828652,-0.35351 v 3.09817 c 0,2.94707 -0.0334,3.13788 -0.68498,3.91223 l -0.68498,0.81405 -3.614502,-0.0179 c -1.98797,-0.01 -3.86881,-0.14104 -4.17963,-0.29155 z m 6.358292,-2.3134 c 0.55189,-0.45803 0.55749,-2.23349 0.009,-2.7822 -0.58692,-0.58692 -4.137782,-0.58692 -4.724702,0 -0.8056,0.8056 -0.49803,2.53677 0.55903,2.95167 0.94456,0.0552 3.715672,0.19674 4.156892,-0.16947 z m 6.24539,-1.47818 v -4.10105 h 1.32291 1.32292 v 4.10105 4.10104 h -1.32292 -1.32291 z m 6.93875,-0.19844 0.0727,-4.29948 1.12449,-0.0814 1.12447,-0.0814 v 4.38084 4.38084 h -1.19718 -1.19716 z m 6.81958,-0.17013 c 0,-4.88489 -0.0316,-4.79081 1.60914,-4.79081 h 0.77211 v 4.63021 4.63021 h -1.19063 -1.19062 z m 6.91285,3.91503 c -0.9406,-0.8763 -1.09202,-1.62724 -1.09202,-5.41577 0,-3.50906 0.008,-3.55469 0.59532,-3.55757 0.32742,-0.002 1.07156,-0.0766 1.65364,-0.16675 0.87406,-0.13531 1.00075,-0.10255 0.72761,0.18813 -0.37596,0.40009 -0.57307,2.59127 -0.21003,2.59127 0.68341,0 4.97879,-1.43237 5.10815,-1.76948 0.0855,-0.22274 -0.0915,-0.58989 -0.40783,-0.84603 -0.54423,-0.44069 -0.51622,-0.45638 1.07165,-0.60036 0.89676,-0.0813 1.623466,-0.0902 1.737396,-0.0198 0.11393,0.0704 0.0876,0.72285 0.10693,1.42886 l 0.0352,1.28533 -2.017526,0.82243 c -1.20055,0.46217 -2.98649,1.14123 -3.96875,1.50902 -1.5952,0.59729 -1.78594,0.74456 -1.78594,1.37889 0,1.22816 0.36134,1.34518 4.15396,1.34518 h 3.518946 v 1.19062 1.19063 h -4.315726 c -4.01592,0 -4.35709,-0.0385 -4.911,-0.55458 z m 15.576726,-4.86938 v -5.42396 h 1.45521 1.45521 l -0.1754,5.42396 0.0101,5.41197 -1.28988,0.012 -1.19212,-0.12946 z m 25.135417,-0.92604 v -6.35 h 1.45522 1.45521 v 1.32291 1.32292 h 2.7252 c 1.766835,0 2.836855,-0.11166 3.042715,-0.3175 0.17462,-0.17462 0.3175,-0.87366 0.3175,-1.55341 v -1.23592 l 1.36159,-0.18062 c 0.7803,-0.10351 1.47007,-0.0721 1.61572,0.0735 0.48166,0.48166 -0.0695,2.93389 -0.86236,3.83693 l -0.73959,0.84234 0.73885,0.82693 c 1.56593,1.75256 1.2377,6.55303 -0.51206,7.48948 -0.29807,0.15952 -2.59968,0.27243 -5.553505,0.27243 l -4.92756,-0.30068 z m 8.678345,3.12208 c 0.17462,-0.17462 0.3175,-0.94579 0.3175,-1.71369 0,-1.9526 -0.49767,-2.24871 -3.607965,-2.14674 l -2.34516,0.0769 -0.0773,2.05052 -0.0773,2.05052 h 2.73634 c 1.775465,0 2.847805,-0.11149 3.053835,-0.3175 z"
       style="fill:#0362e2;fill-opacity:1;stroke-width:0.26458338" />
    <path
       d="m 90.399568,281.49772 c -0.0928,-5.64219 -0.85068,-5.8215 -7.42953,-5.72316 l -4.82296,0.0718 -0.0548,6.47971 1.52939,-0.10307 1.5685,-0.10569 v -3.22822 h 2.74558 c 3.33806,0.0131 3.3,0.0562 3.35897,2.81739 m -15.56792,1.04801 0.0703,-3.7331 1.32293,-0.0687 c 2.50425,-0.13088 2.55095,-0.16393 2.46083,-1.72548 l -0.0796,-1.38079 h -5.29167 -5.29167 l -0.0801,1.38079 c -0.0901,1.56155 -0.0429,1.5946 2.46135,1.72548 l 1.32292,0.0687 0.0393,3.93929 0.42375,-0.0284 m -6.75827,0.45469 0.18655,-0.0124 c -0.0168,-1.30848 -0.11076,-1.69741 -0.710546,-2.29702 -0.72798,-0.72768 -0.76033,-0.73328 -4.2447,-0.73328 -3.84453,0 -4.70601,0.26702 -5.21984,1.6185 -0.10507,0.27636 -0.16965,1.09706 -0.20929,2.11047 l 1.43239,-0.12172 1.50335,-0.0757 c 0.0285,-0.0521 0.0466,-0.11981 0.0786,-0.16536 0.35717,-0.50993 0.65143,-0.58808 2.2164,-0.58808 1.27452,0 1.9005,0.11587 2.13114,0.39378 0.018,0.0217 0.013,0.0388 0.0289,0.0599 l 0.42425,-0.0289 m 0,0 -0.42426,0.0289 c 0.47442,0.63101 0.0338,1.04116 -1.91875,1.75183 -2.04495,0.74431 -2.40662,0.81541 -2.69338,0.52865 -0.29473,-0.29473 -0.1898,-1.34697 0.1571,-1.98076 l -0.43855,0.62879 c -0.16287,0.71228 -0.20994,1.01596 -0.0689,1.3835 0.22999,0.59934 0.99548,0.50727 3.35741,-0.40359 1.74419,-0.67262 2.10762,-0.91244 2.10427,-1.38906 -0.002,-0.22705 -0.0358,-0.38882 -0.0749,-0.54829 z m -11.54039,0.77719 0.34624,-0.0238 c -0.17102,-2.9869 -0.57408,-3.45126 -2.05105,-3.85092 -1.47368,-0.39877 -4.54364,-0.16717 -5.15834,0.38912 -0.60654,0.54892 -0.94545,0.54288 -1.82211,-0.0315 -0.54464,-0.35686 -1.26888,-0.46302 -3.1595,-0.46302 -2.32749,0 -2.49081,0.0378 -3.18688,0.73328 l -0.73329,0.73278 -0.0553,3.57859 1.32808,-0.0894 1.28983,-0.0868 c 0.15699,-2.17404 0.56427,-2.3549 1.92546,-2.3549 1.45695,0 1.89131,0.15233 2.0836,2.08515 h 2e-5 l 1.42032,-0.0956 1.46943,-0.0987 c 0.12211,-1.81355 0.52452,-1.89084 1.97972,-1.89084 1.25652,0 1.70763,0.2146 1.93011,1.62729 l 0.42789,-0.0285 m -17.23306,1.15962 c -0.18762,-3.98839 -0.429,-4.72421 -1.66295,-5.06946 -0.39836,-0.11145 -2.509932,-0.20257 -4.692742,-0.20257 h -3.96875 l -0.0816,1.12448 -0.0811,1.12448 h 3.39566 c 3.622932,0 4.572332,0.27578 4.572332,1.3286 0,0.80343 -0.84472,1.05265 -3.567742,1.05265 -2.58475,0 -3.70381,0.20132 -4.17184,1.33221 l 0.31368,-0.0207 c 5.67482,0.0538 7.767072,-0.20744 9.581332,-0.6449 z M 15.261,286.55464 c 0.0184,-1.86774 -0.0365,-2.79333 -0.26252,-2.93677 -0.43285,-0.27441 -1.83056,-0.29212 -2.24328,-0.0284 -0.18633,0.11906 -0.34011,1.25362 -0.39687,2.92798 -0.003,0.1 -0.012,0.13926 -0.0155,0.23358 1.9385,0.0921 1.93851,-0.0946 2.91817,-0.19639 z m -8.9167702,0.60045 c -0.0245,-0.75502 -0.0315,-1.5997 -0.0315,-2.83031 0,-3.38123 0.0937,-4.89442 0.3173,-5.11803 0.21355,-0.21355 1.41551,-0.31781 3.6716102,-0.31781 4.04469,-0.37773 4.03181,-0.0427 3.81627,-3.04271 H 9.7047498 c -6.59975,0 -6.52952,-0.094 -6.55206,8.81083 -0.003,1.16845 0.0359,1.84203 0.0527,2.7094 1.6965,-0.0166 1.72253,-0.0191 3.13884,-0.21137 z m 90.1608552,-6.06893 5e-5,8e-5 0.35916,-0.0238 c -0.002,-0.17181 -0.0215,-0.31125 -0.0119,-0.49713 l 0.0801,-1.54409 2.6417,-0.0765 c 2.871875,-0.0832 3.255385,0.10598 3.291265,1.71359 l 0.42475,-0.0885 2.03048,-0.10516 c 0.14279,0.12532 0.43341,0.1018 0.43441,0.142 l 0.27771,-0.16153 c 0.002,-0.11085 0.014,-0.19907 0.0129,-0.31626 -0.0211,-2.31511 -0.44878,-3.38981 -1.57251,-3.95118 -0.77686,-0.38804 -1.68075,-0.46268 -5.606965,-0.46302 v -3e-5 c -2.9382,-2.5e-4 -4.74369,0.10164 -4.84983,0.27337 -0.059,0.0954 -0.13188,3.03484 -0.20361,5.27978 l 0.34158,-0.0227 c 1.06525,-0.19424 1.71831,-0.22969 2.35072,-0.1589 z m 5e-5,8e-5 c 0.0721,0.76987 0.19701,1.49658 0.36226,1.70532 0.1761,0.22246 1.07408,0.33125 2.74298,0.33125 2.128365,0 2.556725,-0.0752 3.010665,-0.52917 v -5.3e-4 c 0.39003,-0.39004 0.67455,-1.25052 0.66917,-2.0233 l -0.42474,0.0885 c 0,0 0.0202,0.14453 0.0202,0.25063 0,1.60138 -0.59473,1.94872 -3.334155,1.94872 -1.53802,0 -2.2465,-0.10716 -2.46807,-0.37414 -0.14591,-0.17581 -0.21232,-0.75136 -0.21911,-1.42111 z"
       style="fill:#277ae8;fill-opacity:1;stroke-width:0.26458341"
       id="path856-4-9-5-7" />
    <path
       id="rect1197"
       d="m 106.01569,279.94843 -3.11247,0.21394 c 0.0113,0.18203 0.0155,0.38285 0.0155,0.61288 0,0.20164 -0.009,0.40169 -0.0238,0.59325 l 3.05821,-0.20981 c 0.0517,-0.39656 0.0715,-0.80492 0.0625,-1.21026 z m -9.182385,0.63098 -2.91041,0.19997 v 1.20563 l 2.91041,-0.2 v -0.96634 z m -6.407877,0.44029 -2.87992,0.19738 c 0.0139,0.34803 0.0212,0.75454 0.0232,1.20406 l 2.88458,-0.1979 c -0.007,-0.42463 -0.0152,-0.84569 -0.0279,-1.20354 z m -9.3741,0.64386 -2.88509,0.19794 c -0.0119,0.39042 -0.022,0.79049 -0.0326,1.20766 l 2.9006,-0.19894 z m -9.25577,0.63564 -3.10368,0.21291 0.0119,1.2051 3.07991,-0.21188 z m -9.24388,0.6351 -3.589946,0.24649 c 0.60575,0.20794 0.96221,0.53798 0.96221,0.94567 0,0.0678 -0.0152,0.13267 -0.047,0.19691 l 2.812236,-0.19328 c -0.0163,-0.42056 -0.0627,-0.82293 -0.13747,-1.19579 z m -7.304966,0.50179 -2.96365,0.20359 c -0.0291,0.34769 -0.049,0.77915 -0.0672,1.20976 l 2.56419,-0.17571 c 0.0412,-0.56618 0.18194,-0.9661 0.46664,-1.23764 z m -6.56756,0.45111 -2.50166,0.17158 c 0.0326,0.30697 0.0585,0.70559 0.0775,1.20044 l 2.42414,-0.16639 z m -6.76341,0.46458 -2.57866,0.17674 c 0.0224,0.32867 0.0398,0.73438 0.0527,1.20198 l 2.43654,-0.16743 c 0.0165,-0.48673 0.0438,-0.88887 0.0894,-1.21129 z m -6.73293,0.46199 -2.52852,0.17415 c -0.0196,0.36915 -0.037,0.77123 -0.0501,1.20872 l 2.54765,-0.17467 c 0.005,-0.47427 0.0148,-0.87421 0.031,-1.2082 z m -6.08283,0.41807 -9.652122,0.66299 c -0.0101,0.0117 -0.0181,0.02 -0.0284,0.032 -0.32775,0.38143 -0.48696,0.66371 -0.56533,1.21441 l 10.245882,-0.70384 z m -13.758332,0.94514 -2.91042,0.2 v 0.11163 c 0,0.41381 -10e-4,0.77055 -0.007,1.0945 l 2.9161,-0.2005 c 3.7e-4,-0.11464 0.002,-0.21807 0.002,-0.33745 z m -9.2480102,0.63511 -2.73626,0.18812 c -0.002,0.45588 6.6e-4,0.82881 0.004,1.2051 l 2.78588,-0.19122 c -0.0275,-0.34115 -0.0444,-0.73816 -0.0532,-1.202 z"
       style="opacity:0.4;vector-effect:none;fill:#000000;fill-opacity:1;stroke:#e30000;stroke-width:0.05291667;stroke-linecap:round;stroke-linejoin:miter;stroke-miterlimit:4;stroke-dasharray:none;stroke-dashoffset:0;stroke-opacity:1;filter:url(#filter1340)" />
    <path
       d="m 106.03271,280.44508 -0.41134,0.0279 c 0.0325,1.91129 -0.0179,2.14709 -0.68523,2.84427 -0.40018,0.41822 -0.7276,0.86621 -0.7276,0.99581 0,0.12959 0.32742,0.57759 0.7276,0.99529 0.68632,0.71637 0.72761,0.89822 0.72761,3.20135 0,2.88743 -0.3755,3.69554 -1.91565,4.12327 -1.08454,0.30118 -9.131285,0.38904 -9.417505,0.10282 -0.097,-0.097 -0.17623,-3.84747 -0.17623,-8.33437 v -3.15639 l -0.34157,0.0227 c -0.0414,1.29441 -0.0867,1.42492 -0.11731,3.04426 -0.11931,6.32148 -0.0798,8.13827 0.18553,8.45788 0.52945,0.63797 9.030535,0.59164 10.327525,-0.0563 1.28585,-0.64238 1.85106,-1.89706 1.85157,-4.10932 5.3e-4,-1.88266 -0.40758,-3.24507 -1.15807,-3.86747 -0.41693,-0.34577 -0.41183,-0.40745 0.0739,-0.92604 0.73491,-0.78469 1.03313,-1.76601 1.05679,-3.36569 z m -6.439905,5.19089 c -1.97531,0 -2.60281,0.089 -2.79776,0.39688 -0.3628,0.57291 -0.31903,3.53916 0.0579,3.91603 0.20143,0.20143 1.2171,0.31731 2.77812,0.31731 2.107855,0 2.536705,-0.0759 2.990005,-0.52916 0.70877,-0.70882 0.72134,-2.6138 0.0233,-3.47629 -0.468,-0.57815 -0.69463,-0.62477 -3.051495,-0.62477 z m -9.193237,-4.13825 -0.33745,0.0227 c 0.0704,1.63513 0.12244,3.87229 0.0806,5.7423 -0.10066,4.49678 -0.24689,4.88196 -2.04742,5.3821 -1.05378,0.29271 -9.35961,0.37103 -9.63972,0.0909 -0.19733,-0.19733 -0.19163,-5.60462 -0.0455,-10.4314 l -0.31781,0.0217 -0.0155,1.8526 c -0.0385,4.58257 -0.0124,8.48186 0.0579,8.66509 0.17322,0.4514 9.13447,0.44029 10.46344,-0.013 1.69431,-0.57777 1.85111,-1.28321 1.85157,-8.32765 9e-5,-1.3095 -0.0345,-2.05522 -0.0501,-3.0055 z m -2.59933,0.17467 -0.50591,0.0341 c 0.0147,0.7394 0.032,1.41821 0.0119,2.69699 -0.0914,5.80021 0.0294,5.59812 -3.3352,5.59812 -1.33564,0 -2.508,-0.0792 -2.60501,-0.17624 -0.097,-0.097 -0.17622,-2.59731 -0.17622,-5.55624 v -2.1518 l -0.35656,0.0243 c 0.006,3.30467 0.19233,7.74493 0.45992,7.92252 0.51532,0.34203 5.04684,0.23143 5.5485,-0.13539 h 5.3e-4 c 0.71605,-0.52361 0.94864,-2.09642 0.95549,-6.45594 z m -16.07344,1.0821 -0.31884,0.0212 c -0.0237,0.955 -0.0554,1.58452 -0.0698,3.0055 l -0.0703,6.99854 -0.9679,0.0811 c -0.53218,0.0444 -1.04961,-0.0531 -1.15032,-0.216 -0.1007,-0.16293 -0.14177,-3.32864 -0.0909,-7.03523 0.0161,-1.17597 0.0182,-1.85143 0.0264,-2.67735 l -0.42374,0.0284 0.0279,2.80758 c 0.037,3.71079 0.1252,6.90264 0.19585,7.09258 0.0872,0.2344 0.53262,0.31941 1.38751,0.26459 l 1.25987,-0.0811 0.13229,-7.01147 z m -9.21339,0.62012 -0.18655,0.0124 c 0.0493,0.35287 0.066,0.71178 0.0331,1.05833 -0.0879,0.92448 -0.0938,0.92843 -3.499526,2.27532 -1.8763,0.74202 -3.63248,1.48701 -3.90261,1.65571 -0.58572,0.36579 -0.63159,1.06672 -0.11627,1.77303 0.32904,0.45095 0.80485,0.52977 3.90261,0.64595 l 3.527946,0.13229 v 0.92604 0.92604 l -3.704166,0.046 c -2.03729,0.0251 -4.08985,-0.0671 -4.56096,-0.20515 -1.3903,-0.40736 -1.6578,-1.26937 -1.65055,-5.31752 0.003,-1.39194 0.0497,-2.3995 0.12351,-3.25302 l -0.35088,0.0233 c -0.10511,2.68749 0.004,6.9348 0.29455,7.51582 0.66272,1.32631 1.77006,1.6014 6.14433,1.52496 l 3.968746,-0.0697 v -1.19063 -1.19062 l -3.527936,-0.13229 c -3.09776,-0.11618 -3.57357,-0.195 -3.90261,-0.64596 -0.76052,-1.04235 -0.54485,-1.20388 3.85868,-2.8944 l 3.571876,-1.37097 v -1.90428 c 0,-0.17136 -0.0214,-0.19652 -0.0233,-0.34055 z m -13.763496,0.92604 -0.34623,0.0238 c 0.0623,1.11937 0.0417,2.56877 -0.0222,4.48657 l -0.13228,3.96875 h -0.79375 -0.79375 l -0.0723,-4.66071 c -0.0261,-1.68822 -0.0594,-2.83027 -0.15143,-3.66231 l -0.42787,0.0284 c 0.12731,0.80833 0.20049,1.90564 0.25477,3.84111 l 0.13228,4.71808 0.87696,0.0842 c 1.66842,0.16015 1.71427,-0.007 1.58697,-5.76554 -0.0286,-1.29427 -0.0635,-2.23111 -0.11109,-3.06235 z m -6.64972,0.44804 -0.38448,0.0258 c -0.0469,0.79418 -0.056,1.85017 -0.062,3.299 l -0.0191,4.70619 h -0.92604 -0.92604 l -0.13228,-4.83848 c -0.0358,-1.30971 -0.0613,-2.28447 -0.10439,-3.02098 l -0.33538,0.0227 c 0.0793,0.79723 0.13142,1.82234 0.17518,3.38325 l 0.1323,4.71808 0.87695,0.0842 c 1.57247,0.15094 1.63659,-0.0492 1.63659,-5.13406 0,-1.515 0.018,-2.49269 0.0687,-3.24579 z m -6.89881,0.46405 -0.30799,0.0207 c -0.0438,0.92543 -0.1,1.48516 -0.10955,3.00655 l -0.0284,4.53977 -0.80357,0.0791 c -0.4418,0.0433 -0.88828,-0.006 -0.99219,-0.11059 -0.20598,-0.20598 -0.17977,-4.49215 -0.03,-7.3825 l -0.34623,0.0233 -0.0269,1.74047 c -0.045,2.92547 -0.0164,5.48968 0.0636,5.69836 0.10237,0.2667 0.48066,0.35544 1.27279,0.29818 l 1.12706,-0.0816 0.0724,-4.61626 c 0.0222,-1.41113 0.0521,-2.42755 0.10904,-3.21532 z m -5.99653,0.4036 -0.3638,0.0248 c 0.0155,0.4898 0.0444,0.85924 0.0501,1.41956 l 0.0434,4.2473 -0.73277,0.73586 c -0.71073,0.71374 -0.82675,0.73768 -3.836462,0.79012 -1.70695,0.0297 -3.46104,-0.0573 -3.89743,-0.19325 -1.26142,-0.39309 -1.45521,-0.89209 -1.45521,-3.74189 0,-1.70554 0.0259,-2.2691 0.24702,-2.61278 l -0.31368,0.0207 c -0.26178,0.63253 -0.32545,1.54709 -0.31471,2.90112 0.0273,3.44479 0.70831,3.9429 5.40844,3.95737 2.545072,0.008 3.178802,-0.0735 3.875222,-0.49816 1.31131,-0.79959 1.52176,-1.85695 1.31672,-6.61199 -0.008,-0.18175 -0.0189,-0.26928 -0.0269,-0.43874 z m -13.943852,0.93844 -0.30128,0.0207 c 0.29344,3.72091 -0.2653,5.5858 -1.95285,6.05443 -1.11824,0.31052 -5.8546202,0.33504 -7.0910402,0.0367 -1.99222,-0.48077 -2.40945,-1.02867 -2.37505,-5.32267 l -0.33538,0.0228 c 0.10363,5.33569 0.8572,5.73442 6.22443,5.7831 1.9819002,0.018 3.2711902,-0.094 3.8364502,-0.33332 1.74518,-0.73864 1.90069,-1.14781 1.99678,-5.26066 0.0113,-0.48241 -0.006,-0.62431 -0.002,-1.00097 z m -2.60553,0.1757 -0.31264,0.0207 c -0.11276,3.07158 -0.29826,3.25047 -3.0835402,3.25047 -2.36951,0 -2.82442,-0.0458 -2.91506,-2.84637 l -0.4005,0.0269 c 0.1724,2.98744 0.66746,3.08407 3.27939,3.08407 2.9868802,0 3.2620602,-0.28065 3.4323502,-3.53572 z m 86.758025,-0.64182 c 2.980985,-0.0919 3.472115,0.18069 3.472115,1.92857 0,1.67778 -0.49912,1.98438 -3.229755,1.98438 -1.62786,0 -2.34876,-0.10459 -2.57246,-0.37415 -0.18334,-0.2209 -0.27819,-1.00777 -0.23099,-1.91823 l 0.0801,-1.54409 z M 23.97829,286.8266 c -1.93219,0 -2.72465,0.41855 -2.97811,1.57251 -0.1696,0.77218 0.19252,1.81223 0.76378,2.19366 0.16011,0.10692 1.20746,0.19621 2.32699,0.19844 1.805992,0.004 2.081962,-0.0623 2.447392,-0.58394 0.6084,-0.8686 0.51139,-1.98199 -0.23771,-2.73111 -0.55258,-0.55256 -0.898902,-0.64956 -2.322342,-0.64956 z m -0.0791,0.27388 c 0.69718,-0.003 1.39313,0.0779 1.818502,0.23979 0.87164,0.33139 1.17541,1.64402 0.58808,2.5404 -0.38826,0.59256 -0.59853,0.65061 -2.351802,0.65061 -1.14472,0 -2.05399,-0.12851 -2.24276,-0.31729 v 0 c -0.17463,-0.17462 -0.31729,-0.83256 -0.31729,-1.46193 0,-0.9848 0.0944,-1.17988 0.67851,-1.40197 0.43113,-0.16391 1.12959,-0.24733 1.82676,-0.24908 z"
       style="fill:#f2f2f2;stroke-width:0.26458341"
       id="path947-9" />
    <path
       d="m 98.866245,275.71462 c -2.9382,-2.6e-4 -4.74369,0.10163 -4.84983,0.27336 -0.059,0.0954 -0.13188,3.03484 -0.20361,5.27979 l 0.34158,-0.0227 v -5.00176 h 4.74492 c 2.609915,0 5.053235,0.11701 5.429115,0.25993 0.92619,0.35212 1.2495,1.32272 1.29605,3.88917 7.9e-4,0.0418 -0.004,0.0404 -0.003,0.0806 l 0.41133,-0.0279 c 0.002,-0.11085 0.014,-0.19907 0.0129,-0.31626 -0.0211,-2.31511 -0.44881,-3.38981 -1.57254,-3.95118 -0.77681,-0.38804 -1.68071,-0.46267 -5.606915,-0.46302 z m -8.466687,5.78311 c -0.0927,-5.6422 -0.85067,-5.82151 -7.42951,-5.72317 l -4.82296,0.0718 -0.0548,6.47971 0.31781,-0.0217 c 0.0212,-0.699 0.014,-1.3933 0.0424,-2.05 l 0.17363,-4.01113 h 4.87412 4.87362 l 0.74464,0.74465 c 0.68915,0.68915 0.75822,0.95015 0.92915,3.50573 0.0154,0.23036 0.002,0.73442 0.0145,1.02681 z m -2.59931,0.17466 0.004,-2.21537 -0.69712,-0.54828 c -0.59606,-0.46886 -1.06813,-0.54881 -3.25459,-0.54881 -1.50167,0 -2.67653,0.1201 -2.84685,0.29042 -0.13989,0.13989 -0.17535,1.68984 -0.17208,3.49126 l 0.35656,-0.0243 v -3.22822 h 2.74557 c 2.18801,0 2.81694,0.0856 3.09542,0.42116 0.17138,0.2065 0.23722,1.07143 0.26355,2.39623 z m -16.07345,1.08211 0.0703,-3.73311 1.32293,-0.0687 c 2.50426,-0.13088 2.55095,-0.16392 2.46084,-1.72547 l -0.0796,-1.3808 h -5.29167 -5.29168 l -0.0801,1.3808 c -0.0901,1.56155 -0.0429,1.59459 2.46134,1.72547 l 1.32293,0.0687 0.0393,3.9393 0.42375,-0.0284 c 0.0449,-4.56927 -0.16219,-4.56264 -2.24896,-4.56819 l -1.52135,-0.004 v -1.05833 -1.05834 h 4.89478 4.8948 v 1.05834 1.05833 l -1.52136,0.004 c -0.83676,0.002 -1.66852,0.0974 -1.84795,0.21135 -0.17589,0.11172 -0.2643,1.66432 -0.32711,4.20026 z m -9.21338,0.62011 c -0.0168,-1.30848 -0.11076,-1.69741 -0.710546,-2.29701 -0.72798,-0.72769 -0.76033,-0.73329 -4.2447,-0.73329 -3.84453,0 -4.70602,0.26702 -5.21984,1.6185 -0.10508,0.27636 -0.16965,1.09706 -0.20929,2.11047 l 0.35088,-0.0233 c 0.12733,-1.47234 0.36201,-2.32651 0.78548,-2.75074 0.63255,-0.63366 7.03828,-0.78145 7.95094,-0.18345 0.54843,0.35935 0.972736,1.28406 1.110526,2.27118 z m -2.569346,0.1726 -0.42427,0.0289 c 0.47441,0.63101 0.0338,1.04116 -1.91874,1.75183 -2.04496,0.74431 -2.40663,0.81541 -2.69338,0.52865 -0.29473,-0.29473 -0.18981,-1.34696 0.1571,-1.98076 l -0.40515,0.0274 c -0.16286,0.71228 -0.24335,1.61735 -0.10231,1.98489 0.22998,0.59934 0.99547,0.50727 3.3574,-0.40359 1.74419,-0.67262 2.10762,-0.91244 2.10428,-1.38906 -0.002,-0.22705 -0.0358,-0.38882 -0.0749,-0.54829 z m 0,0 c -0.16381,-0.66778 -0.73301,-0.82165 -2.54403,-0.82165 -1.21682,0 -2.23972,0.12669 -2.41175,0.29869 -0.12886,0.12886 -0.23783,0.48181 -0.32866,0.87901 l 0.40515,-0.0274 c 0.0285,-0.0521 0.0466,-0.11981 0.0785,-0.16536 0.35718,-0.50993 0.65143,-0.58808 2.21641,-0.58808 1.27451,0 1.9005,0.11587 2.13113,0.39378 0.018,0.0217 0.013,0.0388 0.0289,0.0599 z m -11.19416,0.75344 c -0.17101,-2.9869 -0.57406,-3.45126 -2.05103,-3.85092 -1.47368,-0.39877 -4.54364,-0.16717 -5.15835,0.38912 -0.60653,0.54892 -0.94544,0.54288 -1.8221,-0.0315 -0.54465,-0.35686 -1.26888,-0.46302 -3.1595,-0.46302 -2.32749,0 -2.49082,0.0378 -3.18688,0.73329 l -0.73329,0.73277 -0.0553,3.57859 0.34623,-0.0233 c 0.0304,-0.58721 0.027,-1.42369 0.0708,-1.81797 0.27645,-2.48977 0.68278,-2.80655 3.60029,-2.80655 1.78334,0 2.30736,0.0971 2.85668,0.52917 0.84884,0.66769 1.38823,0.66769 2.23707,0 0.55013,-0.43274 1.07325,-0.52917 2.87114,-0.52917 2.77004,0 3.66012,0.38894 3.83801,3.58324 z m -2.312,0.15607 c -0.20865,-1.88618 -0.75453,-1.99801 -2.45514,-1.98128 -1.68333,0.0166 -2.13518,0.068 -2.26705,2.29909 l 0.38447,-0.0259 c 0.12212,-1.81355 0.52453,-1.89084 1.97973,-1.89084 1.25652,0 1.70762,0.2146 1.9301,1.62729 z m -7.22747,0.48627 0.33539,-0.0227 c -0.13019,-2.22618 -0.4233,-2.2423 -1.6645,-2.48151 -1.00345,-0.19339 -2.70478,0.31189 -2.91765,0.86662 -0.0325,0.0847 -0.0422,1.33458 -0.0703,1.92804 l 0.30798,-0.0207 c 0.15699,-2.17404 0.56428,-2.35489 1.92546,-2.35489 1.45696,0 1.89131,0.15232 2.08361,2.08514 z m -10.00559,0.67335 c -0.18762,-3.98839 -0.429,-4.72421 -1.66295,-5.06946 -0.39836,-0.11145 -2.509932,-0.20257 -4.692742,-0.20257 h -3.96875 l -0.0817,1.12448 -0.0811,1.12448 h 3.39566 c 3.622932,0 4.572332,0.27578 4.572332,1.3286 0,0.80343 -0.84472,1.05265 -3.567732,1.05265 -2.58476,0 -3.70382,0.20132 -4.17185,1.33221 l 0.31368,-0.0207 c 0.10572,-0.16438 0.24241,-0.29765 0.46767,-0.44545 0.53964,-0.35409 1.36679,-0.48717 3.37344,-0.54312 3.794752,-0.1058 3.849372,-0.12511 3.849372,-1.37046 0,-0.57072 -0.14882,-1.13387 -0.33072,-1.2516 -0.1819,-0.11773 -1.938072,-0.27399 -3.902612,-0.34675 l -3.57187,-0.13229 v -0.66146 -0.66146 l 3.57187,-0.0806 c 4.211952,-0.0955 5.356562,0.15039 5.812062,1.25006 0.1543,0.37253 0.25526,1.80288 0.31212,3.59823 z M 15.261,286.55478 c 0.0184,-1.86774 -0.0365,-2.79333 -0.26252,-2.93677 -0.43285,-0.27441 -1.83056,-0.29212 -2.24327,-0.0284 -0.18633,0.11906 -0.34011,1.25362 -0.39687,2.92798 -0.003,0.1 -0.012,0.13926 -0.0155,0.23358 l 0.31265,-0.0207 c 0.002,-0.0324 0.006,-0.045 0.007,-0.078 l 0.13229,-2.60397 0.95343,-0.0796 0.95395,-0.0801 0.16846,1.40301 c 0.0592,0.49307 0.0544,0.8461 0.0889,1.28365 z m -9.3172602,0.62735 0.4005,-0.0269 c -0.0245,-0.75502 -0.0315,-1.5997 -0.0315,-2.8303 0,-3.38123 0.0937,-4.89443 0.3173,-5.11804 0.21355,-0.21355 1.41551,-0.31781 3.6716102,-0.31781 3.83203,0 4.02821,-0.0953 3.89846,-1.89859 l -0.0822,-1.14412 H 9.7047598 c -6.59975,0 -6.52952,-0.094 -6.55206,8.81083 -0.003,1.16845 0.0359,1.84203 0.0527,2.70941 l 0.33538,-0.0228 c 0.008,-1.00207 0.0197,-2.00078 0.0656,-3.48712 0.24925,-8.07298 -0.22445,-7.44976 5.75572,-7.56493 L 13.721,276.20756 v 1.07642 1.0759 h -3.43958 c -4.8308102,0 -4.6024802,-0.30957 -4.4436502,6.02909 0.0304,1.21194 0.0619,2.02941 0.10593,2.79312 z m 90.5614152,-6.09575 0.35915,-0.0238 c -0.002,-0.17181 -0.0215,-0.31125 -0.0119,-0.49713 l 0.0801,-1.54409 2.6417,-0.0765 c 2.871875,-0.0832 3.255385,0.10599 3.291265,1.71359 l 0.32452,-0.0217 c -0.006,-0.79869 -0.21406,-1.57517 -0.62786,-1.865 -0.88042,-0.61667 -5.635345,-0.59124 -5.984125,0.032 -0.16497,0.29479 -0.16242,1.32643 -0.0729,2.28255 z m 0,0 c 0.0721,0.76987 0.197,1.49658 0.36224,1.70532 0.17611,0.22246 1.07409,0.33125 2.74298,0.33125 2.128375,0 2.556725,-0.0752 3.010665,-0.52917 v -5.3e-4 c 0.39005,-0.39004 0.57435,-1.18369 0.56896,-1.95647 l -0.32453,0.0217 c 0.002,0.0955 0.0202,0.14453 0.0202,0.25063 0,1.60138 -0.59473,1.94872 -3.334155,1.94872 -1.53802,0 -2.2465,-0.10716 -2.46807,-0.37414 -0.14591,-0.17581 -0.21232,-0.75136 -0.21911,-1.4211 z"
       style="fill:#f2f2f2;stroke-width:0.26458341"
       id="path856-4-9-5-9-8" />
  </g>
</svg>
